static_grf.mot
version=1
nRows=22
nColumns 19
inDegrees=yes
endheader
time	1_ground_force_vx	1_ground_force_vy	1_ground_force_vz	1_ground_force_px	1_ground_force_py	1_ground_force_pz	1_ground_torque_x	1_ground_torque_y	1_ground_torque_z	2_ground_force_vx	2_ground_force_vy	2_ground_force_vz	2_ground_force_px	2_ground_force_py	2_ground_force_pz	2_ground_torque_x	2_ground_torque_y	2_ground_torque_z
            1.002500	           -6.128323	          401.254955	          -36.738482	           -0.254680	            0.005891	           -0.328905	           -0.014494	            0.949020	           -0.086891	            2.894628	          448.649657	           39.751888	           -0.272452	            0.005463	           -0.687341	            0.003116	            0.483024	            0.042798
            1.003000	           -6.265801	          400.353766	          -36.787858	           -0.254840	            0.005892	           -0.329124	           -0.014640	            0.935399	           -0.085952	            2.990343	          448.097345	           39.796805	           -0.272502	            0.005463	           -0.687286	            0.003231	            0.484171	            0.043001
            1.003500	           -6.265918	          401.615460	          -36.736595	           -0.254306	            0.005891	           -0.328793	           -0.014434	            0.925172	           -0.084627	            3.083234	          448.282995	           39.468925	           -0.272314	            0.005464	           -0.687430	            0.003250	            0.472563	            0.041607
            1.004000	           -6.265495	          401.794909	          -36.552398	           -0.254688	            0.005891	           -0.328924	           -0.013428	            0.861127	           -0.078339	            3.504924	          448.284183	           39.562602	           -0.272512	            0.005462	           -0.687179	            0.003189	            0.407816	            0.035991
            1.004500	           -6.312070	          401.435745	          -36.874818	           -0.254563	            0.005891	           -0.328746	           -0.013973	            0.888647	           -0.081629	            3.036425	          448.282491	           39.562802	           -0.272309	            0.005463	           -0.687221	            0.003024	            0.446511	            0.039406
            1.005000	           -6.403219	          401.615040	          -36.644541	           -0.254701	            0.005890	           -0.328689	           -0.014368	            0.901172	           -0.082226	            3.176954	          448.283166	           39.515814	           -0.272483	            0.005463	           -0.687430	            0.003394	            0.478911	            0.042216
            1.005500	           -6.036784	          401.435405	          -36.783789	           -0.254614	            0.005891	           -0.328736	           -0.014226	            0.946000	           -0.086683	            2.849108	          448.281145	           39.750594	           -0.272453	            0.005463	           -0.687429	            0.003416	            0.537467	            0.047659
            1.006000	           -6.128503	          401.615683	          -36.782788	           -0.254615	            0.005890	           -0.328657	           -0.014341	            0.939777	           -0.086071	            2.891970	          449.386219	           39.754516	           -0.272352	            0.005464	           -0.687622	            0.003384	            0.525896	            0.046523
            1.006500	           -5.944430	          400.893673	          -36.557059	           -0.254685	            0.005892	           -0.329091	           -0.013790	            0.930025	           -0.084808	            3.129440	          448.467199	           39.516491	           -0.272174	            0.005464	           -0.687238	            0.003399	            0.487124	            0.042923
            1.007000	           -6.174052	          401.254750	          -36.692508	           -0.254794	            0.005891	           -0.328851	           -0.013612	            0.884631	           -0.080895	            2.942767	          448.281818	           39.656698	           -0.272447	            0.005462	           -0.687136	            0.003332	            0.507537	            0.044899
            1.007500	           -6.220252	          400.714700	          -36.878137	           -0.254588	            0.005893	           -0.329206	           -0.014015	            0.902829	           -0.083088	            3.035116	          448.650666	           39.611044	           -0.272416	            0.005464	           -0.687549	            0.003502	            0.517702	            0.045708
            1.008000	           -6.357472	          400.894379	          -36.739459	           -0.254721	            0.005892	           -0.328974	           -0.015239	            0.960955	           -0.088066	            3.176351	          448.466866	           39.657255	           -0.272553	            0.005463	           -0.687406	            0.003466	            0.489378	            0.043275
            1.008500	           -6.357376	          401.615049	          -36.644655	           -0.254659	            0.005891	           -0.328874	           -0.013689	            0.864763	           -0.078904	            2.756717	          447.912693	           39.702391	           -0.272652	            0.005462	           -0.687267	            0.003236	            0.525861	            0.046612
            1.009000	           -6.174295	          400.714512	          -36.832399	           -0.254732	            0.005893	           -0.329247	           -0.013460	            0.873544	           -0.080293	            3.083234	          448.282995	           39.468925	           -0.272436	            0.005463	           -0.687389	            0.003087	            0.448863	            0.039520
            1.009500	           -6.358206	          401.796660	          -36.964870	           -0.254771	            0.005890	           -0.328550	           -0.014772	            0.933497	           -0.085881	            3.225798	          447.730913	           39.513823	           -0.272442	            0.005463	           -0.687166	            0.003199	            0.443996	            0.039184
            1.010000	           -6.311956	          401.435548	          -36.828966	           -0.254609	            0.005892	           -0.329115	           -0.014094	            0.896389	           -0.082238	            2.989616	          448.281987	           39.656678	           -0.272651	            0.005462	           -0.687095	            0.003160	            0.473831	            0.041917
            1.010500	           -6.311192	          401.614468	          -36.507197	           -0.254553	            0.005891	           -0.328861	           -0.014115	            0.898228	           -0.081650	            3.176351	          448.466866	           39.657255	           -0.272421	            0.005463	           -0.687281	            0.003230	            0.456017	            0.040325
            1.011000	           -6.449664	          401.796249	          -36.872931	           -0.254883	            0.005891	           -0.328773	           -0.014446	            0.899951	           -0.082589	            2.895855	          448.282151	           39.515933	           -0.272522	            0.005462	           -0.687221	            0.002977	            0.460899	            0.040628
            1.011500	           -6.311336	          400.533464	          -36.649407	           -0.254844	            0.005892	           -0.329075	           -0.014209	            0.901742	           -0.082511	            3.129460	          448.467031	           39.563419	           -0.272675	            0.005462	           -0.687239	            0.003254	            0.466260	            0.041133
            1.012000	           -6.266176	          400.534652	          -36.924656	           -0.254656	            0.005893	           -0.329197	           -0.013694	            0.875341	           -0.080696	            3.225072	          447.915556	           39.373695	           -0.272602	            0.005462	           -0.687057	            0.003530	            0.490333	            0.043102
            1.012500	           -6.265232	          400.352783	          -36.558582	           -0.254614	            0.005893	           -0.329239	           -0.014125	            0.902599	           -0.082422	            3.320265	          447.546274	           39.747766	           -0.272584	            0.005462	           -0.687148	            0.003222	            0.434256	            0.038567
            1.013000	           -6.128407	          402.336353	          -36.687984	           -0.254730	            0.005890	           -0.328606	           -0.013512	            0.887065	           -0.080889	            3.128816	          448.651005	           39.611004	           -0.272658	            0.005463	           -0.687550	            0.003253	            0.466461	            0.041183
